<svg width="64" height="64" viewBox="0 0 64 64" fill="none" xmlns="http://www.w3.org/2000/svg">
  <rect width="64" height="64" rx="32" fill="#0E0E10"/>
  <path d="M18 44V20H24.5C26.5 20 28.3333 20.3333 30 21C31.6667 21.6667 33 22.5 34 23.5C35 24.5 35.6667 25.6667 36 27C36.3333 28.3333 36.5 29.6667 36.5 31V33C36.5 34.3333 36.3333 35.6667 36 37C35.6667 38.3333 35 39.5 34 40.5C33 41.5 31.6667 42.3333 30 43C28.3333 43.6667 26.5 44 24.5 44H18ZM22 40H24.5C25.8333 40 27 39.8333 28 39.5C29 39.1667 29.8333 38.6667 30.5 38C31.1667 37.3333 31.6667 36.5 32 35.5C32.3333 34.5 32.5 33.3333 32.5 32V31C32.5 29.6667 32.3333 28.5 32 27.5C31.6667 26.5 31.1667 25.6667 30.5 25C29.8333 24.3333 29 23.8333 28 23.5C27 23.1667 25.8333 23 24.5 23H22V40Z" fill="white"/>
  <path d="M38 44L44 20H48L54 44H50L48.5 37H43.5L42 44H38ZM44.5 33H47.5L46 26L44.5 33Z" fill="white"/>
</svg>
